<svg xmlns="http://www.w3.org/2000/svg" version="1.1" xmlns:xlink="http://www.w3.org/1999/xlink" viewBox="0 0 9.977657687512268 5.995686590194699"><g transform="matrix(1,0,0,1,-0.21330293114620957,2.38142329509735)"><g transform="matrix(1,0,0,1,0,0)"><g clip-path="url(#SvgjsClipPath1004)"><path d=" M 9.55060269958496 0.61642 C 9.55060269958496 1.918423339400248 7.603726169846498 2.9739053760238336 5.202131774902344 2.9739053760238336 C 2.8005373799581896 2.9739053760238336 0.8536608502197272 1.918423339400248 0.8536608502197272 0.61642 C 0.8536608502197272 -0.6855833394002477 2.8005373799581896 -1.7410653760238335 5.202131774902344 -1.7410653760238335 C 7.603726169846498 -1.7410653760238335 9.55060269958496 -0.6855833394002477 9.55060269958496 0.61642 Z" fill="#b88059" transform="matrix(1,0,0,1,0,0)" fill-rule="nonzero"></path></g></g><g transform="matrix(1,0,0,1,0,0)"><path d=" M 2.058682370219727 0.23707179999999994 Q 2.169038210219727 0.23707179999999994 2.223066590219727 0.2888010999999999 Q 2.2770949702197267 0.3405303999999999 2.2770949702197267 0.44168991999999985 Q 2.2770949702197267 0.49571829999999983 2.2506555502197267 0.5365269699999999 Q 2.2242161302197268 0.5773356399999998 2.172486830219727 0.5997516699999998 Q 2.120757530219727 0.6221676999999999 2.044887890219727 0.6221676999999999 L 2.049486050219727 0.5704383999999999 Q 2.085121790219727 0.5704383999999999 2.131103390219727 0.5802094899999999 Q 2.177084990219727 0.5899805799999999 2.2201927402197272 0.6146956899999998 Q 2.263300490219727 0.6394107999999998 2.291464220219727 0.6836680899999998 Q 2.319627950219727 0.7279253799999998 2.319627950219727 0.7968977799999999 Q 2.319627950219727 0.8727674199999998 2.2949128402197267 0.9210480999999998 Q 2.270197730219727 0.9693287799999999 2.229963830219727 0.9957681999999999 Q 2.189729930219727 1.0222076199999999 2.143748330219727 1.0319787099999997 Q 2.097766730219727 1.0417497999999998 2.055233750219727 1.0417497999999998 L 1.768998290219727 1.0417497999999998 Q 1.739110250219727 1.0417497999999998 1.718993300219727 1.0216328499999998 Q 1.698876350219727 1.0015158999999998 1.698876350219727 0.9716278599999999 L 1.698876350219727 0.3071937399999999 Q 1.698876350219727 0.2773056999999999 1.718993300219727 0.25718874999999985 Q 1.739110250219727 0.23707179999999994 1.768998290219727 0.23707179999999994 L 2.058682370219727 0.23707179999999994 M 2.037990650219727 0.3727175199999999 L 1.833372530219727 0.3727175199999999 L 1.848316550219727 0.35432487999999995 L 1.848316550219727 0.5623916199999999 L 1.8345220702197271 0.5520457599999999 L 2.041439270219727 0.5520457599999999 Q 2.074775930219727 0.5520457599999999 2.101215350219727 0.5302044999999999 Q 2.127654770219727 0.5083632399999999 2.127654770219727 0.46697979999999994 Q 2.127654770219727 0.41754957999999986 2.102939660219727 0.39513354999999994 Q 2.078224550219727 0.3727175199999999 2.037990650219727 0.3727175199999999 M 2.047186970219727 0.6876914799999998 L 1.837970690219727 0.6876914799999998 L 1.848316550219727 0.6784951599999999 L 1.848316550219727 0.9210480999999998 L 1.836821150219727 0.9095526999999999 L 2.055233750219727 0.9095526999999999 Q 2.108112590219727 0.9095526999999999 2.139150170219727 0.8813889699999998 Q 2.170187750219727 0.8532252399999999 2.170187750219727 0.7968977799999999 Q 2.170187750219727 0.7451684799999998 2.1494960302197272 0.7221776799999999 Q 2.128804310219727 0.6991868799999998 2.100065810219727 0.6934391799999999 Q 2.071327310219727 0.6876914799999998 2.047186970219727 0.6876914799999998 M 2.938114148149414 0.41525049999999986 Q 2.9680021881494145 0.41525049999999986 2.9875443681494143 0.43479267999999993 Q 3.0070865481494145 0.4543348599999999 3.0070865481494145 0.4853724399999999 L 3.0070865481494145 0.9716278599999999 Q 3.0070865481494145 1.0015158999999998 2.9875443681494143 1.0216328499999998 Q 2.9680021881494145 1.0417497999999998 2.938114148149414 1.0417497999999998 Q 2.9082261081494143 1.0417497999999998 2.8886839281494145 1.0216328499999998 Q 2.8691417481494144 1.0015158999999998 2.8691417481494144 0.9716278599999999 L 2.8691417481494144 0.9153003999999998 L 2.8944316281494142 0.9256462599999998 Q 2.8944316281494142 0.9405902799999999 2.8783380681494144 0.9618567699999998 Q 2.8622445081494146 0.9831232599999998 2.8346555481494145 1.0038149799999998 Q 2.8070665881494143 1.0245066999999999 2.769706538149414 1.0388759499999998 Q 2.7323464881494144 1.0532451999999999 2.6886639681494144 1.0532451999999999 Q 2.6093457081494145 1.0532451999999999 2.544971468149414 1.0124365299999998 Q 2.4805972281494144 0.9716278599999999 2.443237178149414 0.8997816099999998 Q 2.4058771281494145 0.8279353599999999 2.4058771281494145 0.7348226199999999 Q 2.4058771281494145 0.64056034 2.443237178149414 0.5687140899999998 Q 2.4805972281494144 0.49686783999999984 2.5438219281494145 0.45605916999999985 Q 2.6070466281494142 0.41525049999999986 2.6840658081494144 0.41525049999999986 Q 2.7334960281494145 0.41525049999999986 2.774879468149414 0.4301945199999999 Q 2.8162629081494144 0.44513853999999986 2.8467257181494143 0.46812933999999984 Q 2.8771885281494143 0.4911201399999999 2.893856858149414 0.5146857099999999 Q 2.9105251881494145 0.5382512799999999 2.9105251881494145 0.55434484 L 2.8691417481494144 0.5692888599999999 L 2.8691417481494144 0.4853724399999999 Q 2.8691417481494144 0.4554843999999999 2.8886839281494145 0.4353674499999999 Q 2.9082261081494143 0.41525049999999986 2.938114148149414 0.41525049999999986 M 2.7059070681494144 0.9267957999999998 Q 2.7564868281494146 0.9267957999999998 2.7944216481494144 0.9015059199999998 Q 2.832356468149414 0.8762160399999999 2.8536229581494146 0.8325335199999999 Q 2.8748894481494145 0.7888509999999999 2.8748894481494145 0.7348226199999999 Q 2.8748894481494145 0.6796446999999999 2.8536229581494146 0.6359621799999999 Q 2.832356468149414 0.5922796599999999 2.7944216481494144 0.5669897799999999 Q 2.7564868281494146 0.5416998999999999 2.7059070681494144 0.5416998999999999 Q 2.6564768481494143 0.5416998999999999 2.6185420281494145 0.5669897799999999 Q 2.5806072081494142 0.5922796599999999 2.5593407181494143 0.6359621799999999 Q 2.5380742281494144 0.6796446999999999 2.5380742281494144 0.7348226199999999 Q 2.5380742281494144 0.7888509999999999 2.5593407181494143 0.8325335199999999 Q 2.5806072081494142 0.8762160399999999 2.6185420281494145 0.9015059199999998 Q 2.6564768481494143 0.9267957999999998 2.7059070681494144 0.9267957999999998 M 3.4852789104833986 0.41525049999999986 Q 3.570344870483398 0.41525049999999986 3.614602160483398 0.4508862399999999 Q 3.6588594504833982 0.4865219799999999 3.6755277804833986 0.5457232899999999 Q 3.6921961104833985 0.6049245999999999 3.6921961104833985 0.6773456199999999 L 3.6921961104833985 0.9716278599999999 Q 3.6921961104833985 1.0015158999999998 3.6726539304833983 1.0216328499999998 Q 3.6531117504833985 1.0417497999999998 3.6232237104833986 1.0417497999999998 Q 3.5933356704833983 1.0417497999999998 3.5737934904833986 1.0216328499999998 Q 3.5542513104833984 1.0015158999999998 3.5542513104833984 0.9716278599999999 L 3.5542513104833984 0.6773456199999999 Q 3.5542513104833984 0.6394107999999998 3.5444802204833983 0.6089479899999999 Q 3.5347091304833986 0.5784851799999999 3.5094192504833983 0.5600925399999999 Q 3.4841293704833984 0.5416998999999999 3.4369982304833986 0.5416998999999999 Q 3.3910166304833984 0.5416998999999999 3.3594042804833983 0.5600925399999999 Q 3.3277919304833983 0.5784851799999999 3.3111236004833984 0.6089479899999999 Q 3.2944552704833985 0.6394107999999998 3.2944552704833985 0.6773456199999999 L 3.2944552704833985 0.9716278599999999 Q 3.2944552704833985 1.0015158999999998 3.2749130904833983 1.0216328499999998 Q 3.2553709104833985 1.0417497999999998 3.225482870483398 1.0417497999999998 Q 3.1955948304833983 1.0417497999999998 3.1760526504833986 1.0216328499999998 Q 3.1565104704833984 1.0015158999999998 3.1565104704833984 0.9716278599999999 L 3.1565104704833984 0.49686783999999984 Q 3.1565104704833984 0.46697979999999994 3.1760526504833986 0.4468628499999999 Q 3.1955948304833983 0.4267458999999999 3.225482870483398 0.4267458999999999 Q 3.2553709104833985 0.4267458999999999 3.2749130904833983 0.4468628499999999 Q 3.2944552704833985 0.46697979999999994 3.2944552704833985 0.49686783999999984 L 3.2944552704833985 0.5462980599999998 L 3.2772121704833985 0.5428494399999999 Q 3.2875580304833982 0.5233072599999998 3.3071002104833984 0.5008912299999999 Q 3.3266423904833986 0.4784751999999999 3.3530818104833986 0.4589330199999999 Q 3.3795212304833986 0.43939083999999984 3.4128578904833984 0.42732066999999985 Q 3.4461945504833986 0.41525049999999986 3.4852789104833986 0.41525049999999986 M 3.9221136525634765 1.0417497999999998 Q 3.8922256125634767 1.0417497999999998 3.8726834325634765 1.0216328499999998 Q 3.8531412525634763 1.0015158999999998 3.8531412525634763 0.9716278599999999 L 3.8531412525634763 0.2612121399999999 Q 3.8531412525634763 0.23132409999999992 3.8726834325634765 0.2112071499999999 Q 3.8922256125634767 0.19109019999999988 3.9221136525634765 0.19109019999999988 Q 3.9520016925634764 0.19109019999999988 3.9715438725634766 0.2112071499999999 Q 3.9910860525634764 0.23132409999999992 3.9910860525634764 0.2612121399999999 L 3.9910860525634764 0.9716278599999999 Q 3.9910860525634764 1.0015158999999998 3.9715438725634766 1.0216328499999998 Q 3.9520016925634764 1.0417497999999998 3.9221136525634765 1.0417497999999998 M 4.287667372563476 0.4267458999999999 Q 4.314106792563477 0.4267458999999999 4.333648972563476 0.4485871599999999 Q 4.353191152563476 0.47042841999999985 4.353191152563476 0.4911201399999999 Q 4.353191152563476 0.5187090999999999 4.325602192563476 0.5428494399999999 L 3.9795906525634765 0.8612720199999999 L 3.9738429525634764 0.7026354999999999 L 4.237087612563476 0.4485871599999999 Q 4.258928872563477 0.4267458999999999 4.287667372563476 0.4267458999999999 M 4.304910472563477 1.04060026 Q 4.2750224325634765 1.04060026 4.254330712563476 1.0176094599999999 L 4.041665812563476 0.7922996199999999 L 4.146273952563477 0.6957382599999999 L 4.353191152563476 0.9210480999999998 Q 4.375032412563477 0.9440388999999998 4.375032412563477 0.9727773999999998 Q 4.375032412563477 1.00266544 4.351466842563476 1.0216328499999998 Q 4.3279012725634765 1.04060026 4.304910472563477 1.04060026 M 5.40846774996582 0.7348226199999999 Q 5.40846774996582 0.8290848999999998 5.366509539965819 0.9009311499999999 Q 5.32455132996582 0.9727773999999998 5.25385461996582 1.0130112999999998 Q 5.18315790996582 1.0532451999999999 5.09579286996582 1.0532451999999999 Q 5.00842782996582 1.0532451999999999 4.93773111996582 1.0130112999999998 Q 4.86703440996582 0.9727773999999998 4.82507619996582 0.9009311499999999 Q 4.783117989965819 0.8290848999999998 4.783117989965819 0.7348226199999999 Q 4.783117989965819 0.64056034 4.82507619996582 0.5687140899999998 Q 4.86703440996582 0.49686783999999984 4.93773111996582 0.45605916999999985 Q 5.00842782996582 0.41525049999999986 5.09579286996582 0.41525049999999986 Q 5.18315790996582 0.41525049999999986 5.25385461996582 0.45605916999999985 Q 5.32455132996582 0.49686783999999984 5.366509539965819 0.5687140899999998 Q 5.40846774996582 0.64056034 5.40846774996582 0.7348226199999999 M 5.2705229499658195 0.7348226199999999 Q 5.2705229499658195 0.6761960799999999 5.24695737996582 0.6330883299999999 Q 5.22339180996582 0.5899805799999999 5.18373267996582 0.5658402399999999 Q 5.14407354996582 0.5416998999999999 5.09579286996582 0.5416998999999999 Q 5.04751218996582 0.5416998999999999 5.00785305996582 0.5658402399999999 Q 4.968193929965819 0.5899805799999999 4.94462835996582 0.6330883299999999 Q 4.92106278996582 0.6761960799999999 4.92106278996582 0.7348226199999999 Q 4.92106278996582 0.7922996199999999 4.94462835996582 0.8354073699999999 Q 4.968193929965819 0.8785151199999999 5.00785305996582 0.9026554599999999 Q 5.04751218996582 0.9267957999999998 5.09579286996582 0.9267957999999998 Q 5.14407354996582 0.9267957999999998 5.18373267996582 0.9026554599999999 Q 5.22339180996582 0.8785151199999999 5.24695737996582 0.8354073699999999 Q 5.2705229499658195 0.7922996199999999 5.2705229499658195 0.7348226199999999 M 5.839560966333007 0.19109019999999988 Q 5.864850846333007 0.19109019999999988 5.888991186333007 0.1979874399999999 Q 5.913131526333006 0.20488467999999993 5.929225086333007 0.22040346999999993 Q 5.945318646333007 0.23592225999999994 5.945318646333007 0.2612121399999999 Q 5.945318646333007 0.2899506399999999 5.928650316333007 0.30661896999999994 Q 5.911981986333007 0.32328729999999994 5.890140726333007 0.32328729999999994 Q 5.879794866333007 0.32328729999999994 5.859103146333007 0.31811436999999987 Q 5.838411426333007 0.3129414399999999 5.818869246333007 0.3129414399999999 Q 5.7901307463330065 0.3129414399999999 5.774611956333007 0.32558637999999995 Q 5.759093166333007 0.3382313199999999 5.753345466333007 0.3548996499999999 Q 5.747597766333007 0.3715679799999999 5.747597766333007 0.38421291999999985 L 5.747597766333007 0.9716278599999999 Q 5.747597766333007 1.0015158999999998 5.7280555863330065 1.0216328499999998 Q 5.708513406333007 1.0417497999999998 5.678625366333007 1.0417497999999998 Q 5.6487373263330065 1.0417497999999998 5.629195146333007 1.0216328499999998 Q 5.609652966333007 1.0015158999999998 5.609652966333007 0.9716278599999999 L 5.609652966333007 0.38536245999999985 Q 5.609652966333007 0.30374511999999987 5.667129966333007 0.24741765999999987 Q 5.724606966333007 0.19109019999999988 5.839560966333007 0.19109019999999988 M 5.8522059063330065 0.43824129999999994 Q 5.879794866333007 0.43824129999999994 5.898187506333007 0.45605916999999985 Q 5.916580146333007 0.47387703999999986 5.916580146333007 0.5014659999999999 Q 5.916580146333007 0.5290549599999999 5.898187506333007 0.5468728299999999 Q 5.879794866333007 0.5646906999999999 5.8522059063330065 0.5646906999999999 L 5.547577806333007 0.5646906999999999 Q 5.519988846333007 0.5646906999999999 5.501596206333007 0.5468728299999999 Q 5.483203566333007 0.5290549599999999 5.483203566333007 0.5014659999999999 Q 5.483203566333007 0.47387703999999986 5.501596206333007 0.45605916999999985 Q 5.519988846333007 0.43824129999999994 5.547577806333007 0.43824129999999994 L 5.8522059063330065 0.43824129999999994 M 6.631618723481444 0.41754957999999986 L 6.383318083481444 1.0015158999999998 Q 6.375271303481444 1.0233571599999998 6.358602973481444 1.0354273299999999 Q 6.341934643481444 1.0474974999999997 6.322392463481444 1.0474974999999997 Q 6.291354883481444 1.0474974999999997 6.276410863481444 1.0302543999999998 Q 6.261466843481444 1.0130112999999998 6.261466843481444 0.9877214199999999 Q 6.261466843481444 0.9773755599999998 6.264915463481444 0.9658801599999999 L 6.551150923481444 0.2784552399999999 Q 6.560347243481444 0.2554644399999999 6.579314653481444 0.24281949999999997 Q 6.598282063481444 0.23017455999999992 6.620123323481444 0.23247363999999993 Q 6.640815043481444 0.23247363999999993 6.658632913481444 0.24454380999999992 Q 6.676450783481444 0.2566139799999999 6.684497563481444 0.2784552399999999 L 6.967284403481444 0.9520856799999998 Q 6.973032103481444 0.9670296999999999 6.973032103481444 0.9796746399999998 Q 6.973032103481444 1.0107122199999998 6.9529151534814435 1.02910486 Q 6.932798203481444 1.0474974999999997 6.9086578634814435 1.0474974999999997 Q 6.887966143481444 1.0474974999999997 6.871297813481444 1.0348525599999998 Q 6.854629483481444 1.0222076199999999 6.845433163481444 1.00036636 L 6.598282063481444 0.4244468199999999 L 6.631618723481444 0.41754957999999986 M 6.418953823481444 0.8612720199999999 L 6.482178523481444 0.7290749199999998 L 6.792554323481444 0.7290749199999998 L 6.814395583481444 0.8612720199999999 L 6.418953823481444 0.8612720199999999 M 7.402933682436522 0.23707179999999994 Q 7.462709762436522 0.23707179999999994 7.515013832436522 0.27155799999999986 Q 7.567317902436522 0.3060441999999999 7.599505022436522 0.3646707399999999 Q 7.631692142436522 0.4232972799999999 7.631692142436522 0.49571829999999983 Q 7.631692142436522 0.5669897799999999 7.599505022436522 0.6256163199999999 Q 7.567317902436522 0.6842428599999999 7.515013832436522 0.7193038299999999 Q 7.462709762436522 0.7543647999999998 7.402933682436522 0.7543647999999998 L 7.1914183224365225 0.7543647999999998 L 7.202913722436522 0.7336730799999999 L 7.202913722436522 0.9716278599999999 Q 7.202913722436522 1.0015158999999998 7.184521082436522 1.0216328499999998 Q 7.166128442436522 1.0417497999999998 7.136240402436522 1.0417497999999998 Q 7.107501902436522 1.0417497999999998 7.089109262436522 1.0216328499999998 Q 7.070716622436522 1.0015158999999998 7.070716622436522 0.9716278599999999 L 7.070716622436522 0.3071937399999999 Q 7.070716622436522 0.2773056999999999 7.090833572436522 0.25718874999999985 Q 7.110950522436522 0.23707179999999994 7.140838562436522 0.23707179999999994 L 7.402933682436522 0.23707179999999994 M 7.402933682436522 0.6233172399999999 Q 7.424774942436522 0.6233172399999999 7.445466662436522 0.6049245999999999 Q 7.466158382436522 0.5865319599999999 7.479952862436522 0.5572186899999999 Q 7.493747342436522 0.5279054199999998 7.493747342436522 0.49571829999999983 Q 7.493747342436522 0.4623816399999999 7.479952862436522 0.4336431399999999 Q 7.466158382436522 0.4049046399999999 7.445466662436522 0.3870867699999999 Q 7.424774942436522 0.3692688999999999 7.402933682436522 0.3692688999999999 L 7.189119242436522 0.3692688999999999 L 7.202913722436522 0.34857717999999993 L 7.202913722436522 0.6417098799999998 L 7.190268782436522 0.6233172399999999 L 7.402933682436522 0.6233172399999999 M 7.907613175170897 0.9716278599999999 Q 7.907613175170897 1.0015158999999998 7.8857719151708965 1.0216328499999998 Q 7.863930655170897 1.0417497999999998 7.835192155170897 1.0417497999999998 Q 7.803005035170897 1.0417497999999998 7.783462855170897 1.0216328499999998 Q 7.763920675170897 1.0015158999999998 7.763920675170897 0.9716278599999999 L 7.763920675170897 0.3071937399999999 Q 7.763920675170897 0.2773056999999999 7.784612395170897 0.25718874999999985 Q 7.805304115170897 0.23707179999999994 7.837491235170897 0.23707179999999994 Q 7.865080195170897 0.23707179999999994 7.8863466851708965 0.25718874999999985 Q 7.907613175170897 0.2773056999999999 7.907613175170897 0.3071937399999999 L 7.907613175170897 0.9716278599999999 M 8.051333740112304 0.29224971999999994 Q 8.057081440112302 0.23707179999999994 8.111109820112302 0.23707179999999994 L 8.146745560112302 0.23707179999999994 Q 8.178932680112304 0.23707179999999994 8.191577620112303 0.25488966999999996 Q 8.204222560112303 0.27270753999999986 8.193876700112304 0.30259557999999986 L 8.115707980112303 0.5428494399999999 Q 8.101913500112303 0.5807842599999999 8.066277760112303 0.5807842599999999 Q 8.029492480112303 0.5807842599999999 8.032941100112303 0.5336531199999999 L 8.051333740112304 0.29224971999999994 M 8.27661495387207 0.9463379799999998 Q 8.265119553872069 0.9302444199999998 8.266269093872069 0.9049545399999999 Q 8.267418633872069 0.8796646599999999 8.29615713387207 0.8612720199999999 Q 8.31454977387207 0.8497766199999999 8.335241493872068 0.8515009299999998 Q 8.355933213872069 0.8532252399999999 8.375475393872069 0.8727674199999998 Q 8.408812053872069 0.9061040799999999 8.445597333872069 0.9244967199999998 Q 8.482382613872069 0.9428893599999999 8.53756053387207 0.9428893599999999 Q 8.55480363387207 0.9417398199999999 8.57549535387207 0.9377164299999998 Q 8.59618707387207 0.9336930399999999 8.61170586387207 0.9193237899999999 Q 8.62722465387207 0.9049545399999999 8.62722465387207 0.8750664999999999 Q 8.62722465387207 0.8497766199999999 8.60998155387207 0.8348325999999999 Q 8.59273845387207 0.8198885799999999 8.56457472387207 0.8095427199999998 Q 8.53641099387207 0.7991968599999999 8.50192479387207 0.7900005399999999 Q 8.46628905387207 0.7796546799999999 8.428929003872069 0.7670097399999999 Q 8.391568953872069 0.7543647999999998 8.36053137387207 0.7342478499999998 Q 8.32949379387207 0.7141308999999998 8.30995161387207 0.6807942399999999 Q 8.29040943387207 0.6474575799999999 8.29040943387207 0.5968778199999999 Q 8.29040943387207 0.5394008199999999 8.322596553872069 0.49916691999999985 Q 8.354783673872069 0.4589330199999999 8.405938203872068 0.43709175999999994 Q 8.45709273387207 0.41525049999999986 8.513420193872069 0.41525049999999986 Q 8.549055933872069 0.41525049999999986 8.588140293872069 0.42387204999999994 Q 8.62722465387207 0.4324935999999999 8.66286039387207 0.45146100999999994 Q 8.69849613387207 0.47042841999999985 8.72263647387207 0.5014659999999999 Q 8.73528141387207 0.5187090999999999 8.73758049387207 0.5428494399999999 Q 8.73987957387207 0.5669897799999999 8.71573923387207 0.5865319599999999 Q 8.69849613387207 0.6003264399999999 8.675505333872069 0.59860213 Q 8.652514533872068 0.5968778199999999 8.637570513872069 0.58308334 Q 8.618028333872068 0.5577934599999999 8.585266443872069 0.5428494399999999 Q 8.552504553872069 0.5279054199999998 8.50997157387207 0.5279054199999998 Q 8.49272847387207 0.5279054199999998 8.47261152387207 0.5319288099999999 Q 8.45249457387207 0.5359521999999999 8.43755055387207 0.5491719099999999 Q 8.42260653387207 0.5623916199999999 8.42260653387207 0.5911301199999999 Q 8.42260653387207 0.6175695399999999 8.43984963387207 0.6330883299999999 Q 8.45709273387207 0.6486071199999999 8.48640600387207 0.6583782099999999 Q 8.515719273872069 0.6681492999999998 8.549055933872069 0.6773456199999999 Q 8.583542133872069 0.6865419399999999 8.619177873872069 0.6991868799999998 Q 8.654813613872069 0.7118318199999999 8.68470165387207 0.7325235399999999 Q 8.71458969387207 0.7532152599999999 8.73298233387207 0.7859771499999999 Q 8.75137497387207 0.8187390399999999 8.75137497387207 0.8693187999999998 Q 8.75137497387207 0.9279453399999998 8.71688877387207 0.9693287799999999 Q 8.68240257387207 1.0107122199999998 8.63067327387207 1.0319787099999997 Q 8.57894397387207 1.0532451999999999 8.52491559387207 1.0532451999999999 Q 8.45709273387207 1.0532451999999999 8.389269873872069 1.0296796299999997 Q 8.321447013872069 1.0061140599999998 8.27661495387207 0.9463379799999998" fill="#431a10" fill-rule="nonzero"></path></g><g transform="matrix(1,0,0,1,0,0)"></g></g><defs><clipPath id="SvgjsClipPath1004"><path d=" M 0.8536608502197272 -1.7410653760238335 h 8.696941849365233 v 4.714970752047667 h -8.696941849365233 Z"></path></clipPath></defs></svg>